<svg width="20" height="20" viewBox="0 0 20 20" fill="none" xmlns="http://www.w3.org/2000/svg">
<path d="M3.25 18.75V1.25H17.5C17.6375 1.25 17.75 1.362 17.75 1.5V18.5C17.75 18.638 17.6375 18.75 17.5 18.75H3.25Z" fill="#8BB7F0"/>
<path d="M17.5 1.5V18.5H3.5V1.5H17.5ZM17.5 1H3V19H17.5C17.776 19 18 18.776 18 18.5V1.5C18 1.224 17.776 1 17.5 1Z" fill="#4E7AB5"/>
<path d="M4.5 19H2.5C2.224 19 2 18.776 2 18.5V1.5C2 1.224 2.224 1 2.5 1H4.5V19Z" fill="#4E7AB5"/>
<path d="M11 6C10.4696 6 9.96086 6.21071 9.58579 6.58579C9.21071 6.96086 9 7.46957 9 8C9 8.53043 9.21071 9.03914 9.58579 9.41421C9.96086 9.78929 10.4696 10 11 10C11.5304 10 12.0391 9.78929 12.4142 9.41421C12.7893 9.03914 13 8.53043 13 8C13 7.46957 12.7893 6.96086 12.4142 6.58579C12.0391 6.21071 11.5304 6 11 6V6ZM14 13.5C14 11.843 12.657 10.5 11 10.5C9.343 10.5 8 11.843 8 13.5H14Z" fill="white"/>
</svg>
