<svg width="16" height="16" viewBox="0 0 16 16" fill="none" xmlns="http://www.w3.org/2000/svg">
<path d="M11.3335 8.93334V10.9333C11.3335 13.6 10.2668 14.6667 7.60016 14.6667H5.06683C2.40016 14.6667 1.3335 13.6 1.3335 10.9333V8.40001C1.3335 5.73334 2.40016 4.66667 5.06683 4.66667H7.06683" stroke="#F8F8F8" stroke-width="1.5" stroke-linecap="round" stroke-linejoin="round"/>
<path d="M11.3336 8.93334H9.20023C7.60023 8.93334 7.06689 8.40001 7.06689 6.80001V4.66667L11.3336 8.93334Z" stroke="#F8F8F8" stroke-width="1.5" stroke-linecap="round" stroke-linejoin="round"/>
<path d="M7.7334 1.33333H10.4001" stroke="#F8F8F8" stroke-width="1.5" stroke-linecap="round" stroke-linejoin="round"/>
<path d="M4.6665 3.33333C4.6665 2.22666 5.55984 1.33333 6.6665 1.33333H8.41317" stroke="#F8F8F8" stroke-width="1.5" stroke-linecap="round" stroke-linejoin="round"/>
<path d="M14.6668 5.33333V9.45999C14.6668 10.4933 13.8268 11.3333 12.7935 11.3333" stroke="#F8F8F8" stroke-width="1.5" stroke-linecap="round" stroke-linejoin="round"/>
<path d="M14.6665 5.33333H12.6665C11.1665 5.33333 10.6665 4.83333 10.6665 3.33333V1.33333L14.6665 5.33333Z" stroke="#F8F8F8" stroke-width="1.5" stroke-linecap="round" stroke-linejoin="round"/>
</svg>
