<svg width="16" height="16" viewBox="0 0 16 16" fill="none" stroke="#171614" xmlns="http://www.w3.org/2000/svg">
<path d="M7.33331 1.33325H5.99998C2.66665 1.33325 1.33331 2.66659 1.33331 5.99992V9.99992C1.33331 13.3333 2.66665 14.6666 5.99998 14.6666H9.99998C13.3333 14.6666 14.6666 13.3333 14.6666 9.99992V8.66658" stroke-opacity="0.7" stroke-width="1.5" stroke-linecap="round" stroke-linejoin="round"/>
<path d="M10.6933 2.01326L5.43998 7.26659C5.23998 7.46659 5.03998 7.85992 4.99998 8.14659L4.71331 10.1533C4.60665 10.8799 5.11998 11.3866 5.84665 11.2866L7.85331 10.9999C8.13331 10.9599 8.52665 10.7599 8.73331 10.5599L13.9866 5.30659C14.8933 4.39992 15.32 3.34659 13.9866 2.01326C12.6533 0.679924 11.6 1.10659 10.6933 2.01326Z" stroke-opacity="0.7" stroke-width="1.5" stroke-miterlimit="10" stroke-linecap="round" stroke-linejoin="round"/>
<path d="M9.94 2.7666C10.3867 4.35993 11.6333 5.6066 13.2333 6.05993" stroke-opacity="0.7" stroke-width="1.5" stroke-miterlimit="10" stroke-linecap="round" stroke-linejoin="round"/>
</svg>
