<svg width="16" height="18" viewBox="0 0 16 18" fill="none" xmlns="http://www.w3.org/2000/svg">
<path d="M13.1933 10.9533C11.8199 12.32 9.85327 12.74 8.1266 12.2L4.9866 15.3333C4.75993 15.5667 4.31327 15.7067 3.99327 15.66L2.53993 15.46C2.05993 15.3933 1.61327 14.94 1.53993 14.46L1.33993 13.0067C1.29327 12.6867 1.4466 12.24 1.6666 12.0133L4.79993 8.87998C4.2666 7.14665 4.67993 5.17998 6.05327 3.81332C8.01993 1.84665 11.2133 1.84665 13.1866 3.81332C15.1599 5.77998 15.1599 8.98665 13.1933 10.9533Z" stroke="#F8F8F8" stroke-width="1.5" stroke-miterlimit="10" stroke-linecap="round" stroke-linejoin="round"/>
<path d="M4.59326 12.66L6.12659 14.1933" stroke="#F8F8F8" stroke-width="1.5" stroke-miterlimit="10" stroke-linecap="round" stroke-linejoin="round"/>
<path d="M9.6665 8.33331C10.2188 8.33331 10.6665 7.8856 10.6665 7.33331C10.6665 6.78103 10.2188 6.33331 9.6665 6.33331C9.11422 6.33331 8.6665 6.78103 8.6665 7.33331C8.6665 7.8856 9.11422 8.33331 9.6665 8.33331Z" stroke="#F8F8F8" stroke-width="1.5" stroke-linecap="round" stroke-linejoin="round"/>
<line x1="1.77487" y1="1.36788" x2="14.7449" y2="17.2669" stroke="#F8F8F8" stroke-width="2"/>
</svg>
