<svg width="16" height="16" viewBox="0 0 16 16" fill="none" xmlns="http://www.w3.org/2000/svg">
<path d="M13.1933 9.95332C11.8199 11.32 9.85327 11.74 8.1266 11.2L4.9866 14.3333C4.75993 14.5667 4.31327 14.7067 3.99327 14.66L2.53993 14.46C2.05993 14.3933 1.61327 13.94 1.53993 13.46L1.33993 12.0067C1.29327 11.6867 1.4466 11.24 1.6666 11.0133L4.79993 7.87998C4.2666 6.14665 4.67993 4.17998 6.05327 2.81332C8.01993 0.846651 11.2133 0.846651 13.1866 2.81332C15.1599 4.77998 15.1599 7.98665 13.1933 9.95332Z" stroke="#F8F8F8" stroke-width="1.5" stroke-miterlimit="10" stroke-linecap="round" stroke-linejoin="round"/>
<path d="M4.59326 11.66L6.12659 13.1933" stroke="#F8F8F8" stroke-width="1.5" stroke-miterlimit="10" stroke-linecap="round" stroke-linejoin="round"/>
<path d="M9.6665 7.33334C10.2188 7.33334 10.6665 6.88563 10.6665 6.33334C10.6665 5.78106 10.2188 5.33334 9.6665 5.33334C9.11422 5.33334 8.6665 5.78106 8.6665 6.33334C8.6665 6.88563 9.11422 7.33334 9.6665 7.33334Z" stroke="#F8F8F8" stroke-width="1.5" stroke-linecap="round" stroke-linejoin="round"/>
</svg>
