<svg width="16" height="16" viewBox="0 0 16 16" fill="none" xmlns="http://www.w3.org/2000/svg">
<path d="M4 6.66668V5.33334C4 3.12668 4.66667 1.33334 8 1.33334C11.3333 1.33334 12 3.12668 12 5.33334V6.66668" stroke="#F8F8F8" stroke-width="1.5" stroke-linecap="round" stroke-linejoin="round"/>
<path d="M8.00016 12.3333C8.92064 12.3333 9.66683 11.5871 9.66683 10.6667C9.66683 9.74619 8.92064 9 8.00016 9C7.07969 9 6.3335 9.74619 6.3335 10.6667C6.3335 11.5871 7.07969 12.3333 8.00016 12.3333Z" stroke="#F8F8F8" stroke-width="1.5" stroke-linecap="round" stroke-linejoin="round"/>
<path d="M11.3335 14.6667H4.66683C2.00016 14.6667 1.3335 14 1.3335 11.3333V9.99999C1.3335 7.33332 2.00016 6.66666 4.66683 6.66666H11.3335C14.0002 6.66666 14.6668 7.33332 14.6668 9.99999V11.3333C14.6668 14 14.0002 14.6667 11.3335 14.6667Z" stroke="#F8F8F8" stroke-width="1.5" stroke-linecap="round" stroke-linejoin="round"/>
</svg>
