<svg width="16" height="17" viewBox="0 0 16 17" fill="none" xmlns="http://www.w3.org/2000/svg">
<path d="M15.9519 15.2667L10.758 10.0727C11.564 9.03071 11.9999 7.75672 11.9999 6.41672C11.9999 4.81273 11.374 3.30874 10.242 2.17474C9.10996 1.04075 7.60197 0.416748 5.99997 0.416748C4.39798 0.416748 2.88999 1.04275 1.75799 2.17474C0.623997 3.30674 0 4.81273 0 6.41672C0 8.01872 0.625997 9.52671 1.75799 10.6587C2.88999 11.7927 4.39598 12.4167 5.99997 12.4167C7.33997 12.4167 8.61196 11.9807 9.65396 11.1767L14.8479 16.3687C14.8632 16.3839 14.8812 16.396 14.9012 16.4043C14.9211 16.4125 14.9424 16.4167 14.9639 16.4167C14.9855 16.4167 15.0068 16.4125 15.0267 16.4043C15.0466 16.396 15.0647 16.3839 15.0799 16.3687L15.9519 15.4987C15.9672 15.4835 15.9793 15.4654 15.9875 15.4455C15.9958 15.4256 16 15.4042 16 15.3827C16 15.3611 15.9958 15.3398 15.9875 15.3199C15.9793 15.3 15.9672 15.2819 15.9519 15.2667ZM9.16796 9.58471C8.31996 10.4307 7.19597 10.8967 5.99997 10.8967C4.80398 10.8967 3.67998 10.4307 2.83199 9.58471C1.98599 8.73671 1.51999 7.61272 1.51999 6.41672C1.51999 5.22073 1.98599 4.09473 2.83199 3.24874C3.67998 2.40274 4.80398 1.93674 5.99997 1.93674C7.19597 1.93674 8.32196 2.40074 9.16796 3.24874C10.014 4.09673 10.48 5.22073 10.48 6.41672C10.48 7.61272 10.014 8.73871 9.16796 9.58471Z" fill="#7C7C7C"/>
</svg>
