<svg width="16" height="16" viewBox="0 0 16 16" fill="none" xmlns="http://www.w3.org/2000/svg">
<path d="M2.6665 2.66668V13.3333C2.6665 14.0687 3.2645 14.6667 3.99984 14.6667H11.9998C12.7352 14.6667 13.3332 14.0687 13.3332 13.3333V5.33334C13.3333 5.24579 13.3161 5.15907 13.2825 5.07819C13.249 4.9973 13.1998 4.92384 13.1378 4.86201L9.8045 1.52868C9.7427 1.46665 9.66924 1.41746 9.58835 1.38393C9.50746 1.35041 9.42073 1.33322 9.33317 1.33334H3.99984C3.2645 1.33334 2.6665 1.93134 2.6665 2.66668ZM11.9998 5.60934L12.0005 13.3333H3.99984V2.66668H9.05717L11.9998 5.60934Z" fill="#F8F8F8"/>
<path d="M5.3335 4H6.66683V6.66667H5.3335V4ZM8.00016 4H9.3335V6.66667H8.00016V4Z" fill="#F8F8F8"/>
</svg>
