<svg width="16" height="16" viewBox="0 0 16 16" fill="none" xmlns="http://www.w3.org/2000/svg">
<path d="M6 10V6H10V10H6ZM7.33333 8.66667H8.66667V7.33333H7.33333V8.66667ZM6 14V12.6667H4.66667C4.3 12.6667 3.98622 12.5362 3.72533 12.2753C3.464 12.014 3.33333 11.7 3.33333 11.3333V10H2V8.66667H3.33333V7.33333H2V6H3.33333V4.66667C3.33333 4.3 3.464 3.98622 3.72533 3.72533C3.98622 3.464 4.3 3.33333 4.66667 3.33333H6V2H7.33333V3.33333H8.66667V2H10V3.33333H11.3333C11.7 3.33333 12.014 3.464 12.2753 3.72533C12.5362 3.98622 12.6667 4.3 12.6667 4.66667V6H14V7.33333H12.6667V8.66667H14V10H12.6667V11.3333C12.6667 11.7 12.5362 12.014 12.2753 12.2753C12.014 12.5362 11.7 12.6667 11.3333 12.6667H10V14H8.66667V12.6667H7.33333V14H6ZM11.3333 11.3333V4.66667H4.66667V11.3333H11.3333Z" fill="#F8F8F8"/>
</svg>
