<svg width="16" height="16" viewBox="0 0 16 16" fill="none" stroke="#F8F8F8" xmlns="http://www.w3.org/2000/svg">
<path d="M11.3333 12.2868H8.66665L5.69997 14.2601C5.25997 14.5535 4.66665 14.2402 4.66665 13.7068V12.2868C2.66665 12.2868 1.33331 10.9535 1.33331 8.95349V4.95345C1.33331 2.95345 2.66665 1.62012 4.66665 1.62012H11.3333C13.3333 1.62012 14.6666 2.95345 14.6666 4.95345V8.95349C14.6666 10.9535 13.3333 12.2868 11.3333 12.2868Z" stroke-opacity="0.8" stroke-width="1.5" stroke-miterlimit="10" stroke-linecap="round" stroke-linejoin="round"/>
<path d="M8.00002 7.57324V7.43327C8.00002 6.97993 8.28004 6.73992 8.56004 6.54659C8.83337 6.35992 9.10667 6.11993 9.10667 5.67993C9.10667 5.0666 8.61335 4.57324 8.00002 4.57324C7.38669 4.57324 6.89337 5.0666 6.89337 5.67993" stroke-opacity="0.8" stroke-width="1.5" stroke-linecap="round" stroke-linejoin="round"/>
<path d="M7.99702 9.16659H8.00302" stroke-opacity="0.8" stroke-width="1.5" stroke-linecap="round" stroke-linejoin="round"/>
</svg>
