<svg width="48" height="48" viewBox="0 0 48 48" fill="none" xmlns="http://www.w3.org/2000/svg">
<path d="M28.39 19.45C29.0996 19.9776 29.6759 20.6639 30.0729 21.4539C30.47 22.2439 30.6768 23.1158 30.6768 24C30.6768 24.8842 30.47 25.7562 30.0729 26.5462C29.6759 27.3362 29.0996 28.0224 28.39 28.55M36.07 9.29004C38.3733 10.9893 40.2453 13.2056 41.5354 15.7606C42.8255 18.3156 43.4976 21.1378 43.4976 24C43.4976 26.8623 42.8255 29.6845 41.5354 32.2395C40.2453 34.7945 38.3733 37.0108 36.07 38.71V9.29004ZM32.07 14.55C33.5862 15.6227 34.8288 17.0369 35.6974 18.6786C36.566 20.3202 37.0362 22.1431 37.07 24C37.0362 25.857 36.566 27.6799 35.6974 29.3215C34.8288 30.9631 33.5862 32.3774 32.07 33.45V14.55Z" stroke="#171614" stroke-linecap="round" stroke-linejoin="round"/>
<path d="M20.45 8.6001H6.08C5.20739 8.6001 4.5 9.30749 4.5 10.1801V37.8101C4.5 38.6827 5.20739 39.3901 6.08 39.3901H20.45C21.3226 39.3901 22.03 38.6827 22.03 37.8101V10.1801C22.03 9.30749 21.3226 8.6001 20.45 8.6001Z" stroke="#171614" stroke-linecap="round" stroke-linejoin="round"/>
<path d="M4.5 35.4501H22.03M4.5 12.55H22.03H4.5Z" stroke="#171614" stroke-linecap="round" stroke-linejoin="round"/>
</svg>
