<svg width="121" height="121" viewBox="0 0 121 121" fill="none" xmlns="http://www.w3.org/2000/svg">
<g clip-path="url(#clip0_356_2599)">
<path d="M60.5617 8.52492C60.4365 8.44253 60.2903 8.39756 60.1404 8.39527C59.9905 8.39299 59.8431 8.43348 59.7154 8.51201C51.1587 13.7065 41.2627 35.5835 41.2592 52.7942C41.2468 55.852 41.5009 58.9052 42.0187 61.9189C39.1297 64.3384 36.6715 67.1886 35.3955 70.4368C31.8221 79.6285 37.2937 88.8167 39.9291 92.4875C40.0724 92.6894 40.2605 92.8554 40.4787 92.9723C40.6969 93.0893 40.9393 93.154 41.1868 93.1614C41.4342 93.1688 41.68 93.1187 41.9049 93.015C42.1297 92.9113 42.3274 92.7568 42.4824 92.5638L51.6013 81.1839C52.3814 81.9494 53.1998 82.6746 54.0536 83.3568C54.6385 83.8386 55.3737 84.1003 56.1314 84.0964L64.06 84.087C64.8176 84.09 65.5525 83.8285 66.1378 83.3475C66.9869 82.6692 67.8011 81.9483 68.5772 81.1875L77.6891 92.5485C77.8443 92.7413 78.042 92.8954 78.2668 92.9989C78.4916 93.1024 78.7373 93.1524 78.9846 93.145C79.232 93.1376 79.4743 93.073 79.6925 92.9563C79.9107 92.8396 80.0989 92.6739 80.2423 92.4722C82.8848 88.8202 88.3693 79.6191 84.7795 70.4439C83.5034 67.1957 81.064 64.3525 78.195 61.9389C78.717 58.9208 78.9751 55.8629 78.9663 52.8C79.0097 35.5753 69.4341 14.0869 60.5617 8.52492ZM60.1039 51.1659C58.5276 51.1665 56.9866 50.6995 55.6757 49.8241C54.3649 48.9486 53.3431 47.7041 52.7396 46.2479C52.1362 44.7917 51.9782 43.1892 52.2855 41.6432C52.5929 40.0972 53.3519 38.677 54.4665 37.5624C55.5812 36.4478 57.0013 35.6888 58.5473 35.3814C60.0934 35.074 61.6958 35.2321 63.152 35.8355C64.6082 36.439 65.8527 37.4608 66.7282 38.7716C67.6036 40.0825 68.0706 41.6235 68.0701 43.1998C68.0708 44.2461 67.8653 45.2824 67.4652 46.2492C67.0651 47.216 66.4784 48.0945 65.7385 48.8344C64.9986 49.5743 64.1201 50.161 63.1533 50.5611C62.1865 50.9612 61.1503 51.1667 60.1039 51.1659Z" fill="#C49218"/>
<path d="M66.6581 87.2249C66.6592 88.5127 65.8786 89.7957 64.8514 91.2526C62.5365 94.5184 57.6612 94.5712 55.3416 91.249C54.4635 89.9883 53.5303 87.9234 53.5303 87.219C53.5318 87.0665 53.4852 86.9175 53.3971 86.793C53.3091 86.6685 53.184 86.5749 53.0398 86.5256C52.8955 86.4762 52.7394 86.4735 52.5935 86.5179C52.4477 86.5623 52.3195 86.6515 52.2272 86.7729C50.8577 88.5243 50.1135 90.6834 50.113 92.9066C50.1154 98.4287 60.1041 108.939 60.1041 108.939C60.1041 108.939 70.0988 98.4228 70.0964 92.9007C70.1003 90.675 69.3548 88.5127 67.9799 86.7624C67.5326 86.2282 66.6428 86.5334 66.6581 87.2249Z" fill="#C49218"/>
</g>
<defs>
<clipPath id="clip0_356_2599">
<rect width="85" height="85" fill="white" transform="translate(0 60.1041) rotate(-45)"/>
</clipPath>
</defs>
</svg>
