<svg width="18" height="18" viewBox="0 0 18 18" fill="none" stroke="#171614" xmlns="http://www.w3.org/2000/svg">
<path d="M1.5 6.75V4.875C1.5 3.0075 3.0075 1.5 4.875 1.5H6.75" stroke-opacity="0.7" stroke-width="1.5" stroke-linecap="round" stroke-linejoin="round"/>
<path d="M11.25 1.5H13.125C14.9925 1.5 16.5 3.0075 16.5 4.875V6.75" stroke-opacity="0.7" stroke-width="1.5" stroke-linecap="round" stroke-linejoin="round"/>
<path d="M16.5 12V13.125C16.5 14.9925 14.9925 16.5 13.125 16.5H12" stroke-opacity="0.7" stroke-width="1.5" stroke-linecap="round" stroke-linejoin="round"/>
<path d="M6.75 16.5H4.875C3.0075 16.5 1.5 14.9925 1.5 13.125V11.25" stroke-opacity="0.7" stroke-width="1.5" stroke-linecap="round" stroke-linejoin="round"/>
<path d="M6.375 8.25C7.41053 8.25 8.25 7.41053 8.25 6.375C8.25 5.33947 7.41053 4.5 6.375 4.5C5.33947 4.5 4.5 5.33947 4.5 6.375C4.5 7.41053 5.33947 8.25 6.375 8.25Z" stroke-opacity="0.7" stroke-width="1.5" stroke-linecap="round" stroke-linejoin="round"/>
<path d="M5.625 13.5C6.24632 13.5 6.75 12.9963 6.75 12.375C6.75 11.7537 6.24632 11.25 5.625 11.25C5.00368 11.25 4.5 11.7537 4.5 12.375C4.5 12.9963 5.00368 13.5 5.625 13.5Z" stroke-opacity="0.7" stroke-width="1.5" stroke-linecap="round" stroke-linejoin="round"/>
<path d="M12.375 6.75C12.9963 6.75 13.5 6.24632 13.5 5.625C13.5 5.00368 12.9963 4.5 12.375 4.5C11.7537 4.5 11.25 5.00368 11.25 5.625C11.25 6.24632 11.7537 6.75 12.375 6.75Z" stroke-opacity="0.7" stroke-width="1.5" stroke-linecap="round" stroke-linejoin="round"/>
<path d="M11.625 13.5C12.6605 13.5 13.5 12.6605 13.5 11.625C13.5 10.5895 12.6605 9.75 11.625 9.75C10.5895 9.75 9.75 10.5895 9.75 11.625C9.75 12.6605 10.5895 13.5 11.625 13.5Z" stroke-opacity="0.7" stroke-width="1.5" stroke-linecap="round" stroke-linejoin="round"/>
</svg>
