<svg width="18" height="20" viewBox="0 0 18 20" fill="none" stroke="#171614" xmlns="http://www.w3.org/2000/svg">
<path d="M16.5 3.875H12" stroke-opacity="0.7" stroke-width="1.5" stroke-miterlimit="10" stroke-linecap="round" stroke-linejoin="round"/>
<path d="M4.5 3.875H1.5" stroke-opacity="0.7" stroke-width="1.5" stroke-miterlimit="10" stroke-linecap="round" stroke-linejoin="round"/>
<path d="M7.5 6.5C8.94975 6.5 10.125 5.32475 10.125 3.875C10.125 2.42525 8.94975 1.25 7.5 1.25C6.05025 1.25 4.875 2.42525 4.875 3.875C4.875 5.32475 6.05025 6.5 7.5 6.5Z" stroke-opacity="0.7" stroke-width="1.5" stroke-miterlimit="10" stroke-linecap="round" stroke-linejoin="round"/>
<path d="M16.5 12.125H13.5" stroke-opacity="0.7" stroke-width="1.5" stroke-miterlimit="10" stroke-linecap="round" stroke-linejoin="round"/>
<path d="M6 12.125H1.5" stroke-opacity="0.7" stroke-width="1.5" stroke-miterlimit="10" stroke-linecap="round" stroke-linejoin="round"/>
<path d="M10.5 14.75C11.9497 14.75 13.125 13.5747 13.125 12.125C13.125 10.6753 11.9497 9.5 10.5 9.5C9.05025 9.5 7.875 10.6753 7.875 12.125C7.875 13.5747 9.05025 14.75 10.5 14.75Z" stroke-opacity="0.7" stroke-width="1.5" stroke-miterlimit="10" stroke-linecap="round" stroke-linejoin="round"/>
</svg>
